<svg xmlns="http://www.w3.org/2000/svg" width="80" height="80"><path fill="#fff" opacity=".1" d="M8 8h64v64H8z"/><path fill="none" stroke="#b0ff45" opacity=".5" d="M0 .5h23"/><path fill="none" stroke="#b0ff45" opacity=".5" d="M.5 0v23"/><path fill="none" stroke="#b0ff45" stroke-width="2" d="M0 1h15"/><path fill="none" stroke="#b0ff45" stroke-width="2" d="M1 0v15"/><path fill="none" stroke="#fff" opacity=".5" d="M8 8.5h15"/><path fill="none" stroke="#fff" opacity=".5" d="M8.5 8v15"/><path fill="#fff" d="M8 8h2v2H8z"/><g><path fill="none" stroke="#b0ff45" opacity=".5" d="M79.5 0v23"/><path fill="none" stroke="#b0ff45" opacity=".5" d="M80 .5H57"/><path fill="none" stroke="#b0ff45" stroke-width="2" d="M79 0v15"/><path fill="none" stroke="#b0ff45" stroke-width="2" d="M80 1H65"/><path fill="none" stroke="#fff" opacity=".5" d="M71.5 8v15"/><path fill="none" stroke="#fff" opacity=".5" d="M72 8.5H57"/><path fill="#fff" d="M72 8v2h-2V8z"/></g><g><path fill="none" stroke="#b0ff45" opacity=".5" d="M80 79.5H57"/><path fill="none" stroke="#b0ff45" opacity=".5" d="M79.5 80V57"/><path fill="none" stroke="#b0ff45" stroke-width="2" d="M80 79H65"/><path fill="none" stroke="#b0ff45" stroke-width="2" d="M79 80V65"/><path fill="none" stroke="#fff" opacity=".5" d="M72 71.5H57"/><path fill="none" stroke="#fff" opacity=".5" d="M71.5 72V57"/><path fill="#fff" d="M72 72h-2v-2h2z"/></g><g><path fill="none" stroke="#b0ff45" opacity=".5" d="M.5 80V57"/><path fill="none" stroke="#b0ff45" opacity=".5" d="M0 79.5h23"/><path fill="none" stroke="#b0ff45" stroke-width="2" d="M1 80V65"/><path fill="none" stroke="#b0ff45" stroke-width="2" d="M0 79h15"/><path fill="none" stroke="#fff" opacity=".5" d="M8.5 72V57"/><path fill="none" stroke="#fff" opacity=".5" d="M8 71.5h15"/><path fill="#fff" d="M8 72v-2h2v2z"/></g></svg>
