<svg xmlns="http://www.w3.org/2000/svg" viewBox="0 0 156.87 111"><path fill="currentColor" d="M94.32,19A44.85,44.85,0,0,0,57.65,0H42.32C21,0,1.65,17.31.11,38.54A41.48,41.48,0,0,0,13.87,72.59V111h55V97H83A13.87,13.87,0,0,0,96.87,83.13V69h6.9a6.9,6.9,0,0,0,6.3-9.7C105.56,49.14,99.63,26.58,94.32,19ZM69.26,48.5a6.94,6.94,0,1,1,6.93-6.94A6.94,6.94,0,0,1,69.26,48.5Z"/><path fill="currentColor" d="M122.76,70.66A3,3,0,0,0,118.1,70l-1.49,1.43A3,3,0,0,0,116,75a8,8,0,0,1,0,7.47,3,3,0,0,0,.57,3.59l1.49,1.42a3,3,0,0,0,4.66-.64A16,16,0,0,0,122.76,70.66Z"/></svg>
