<svg xmlns="http://www.w3.org/2000/svg" viewBox="0 0 151.21 116.83"><path fill="currentColor" d="M92.21,20.14A47.49,47.49,0,0,0,53.42,0H43.81A43.77,43.77,0,0,0,14.6,76.41v40.42H65.71v-7.31H80.32a14.6,14.6,0,0,0,14.6-14.6H73a7.3,7.3,0,1,1,0-14.6h21.9V73h7.3a7.3,7.3,0,0,0,6.67-10.27C104.1,52,97.82,28.12,92.21,20.14Zm-26.5,31A7.3,7.3,0,1,1,73,43.81,7.3,7.3,0,0,1,65.71,51.11Z"/><path fill="currentColor" d="M112.44,76.18,111,77.6a3,3,0,0,0-.57,3.59,8,8,0,0,1,0,7.47,3,3,0,0,0,.57,3.59l1.49,1.43A3,3,0,0,0,117.1,93a16,16,0,0,0,0-16.21A3,3,0,0,0,112.44,76.18Z"/><path fill="currentColor" d="M128.52,65.29a3,3,0,0,0-4.45-.32l-1.45,1.39a3,3,0,0,0-.32,4,24,24,0,0,1,0,29.19,3,3,0,0,0,.32,4l1.45,1.39a3,3,0,0,0,4.45-.32A32,32,0,0,0,128.52,65.29Z"/></svg>
